# xmcd CD database file
#
# Track frame offsets:
#	150
#	45202
#	80711
#	103736
#	135351
#	152768
#	177522
#	207395
#	240851
#	260561
#	278558
#
# Disc length: 4068 seconds
#
# Revision: 0
# Processed by: cddbd v1.5.1PL0 Copyright (c) Steve Scherf et al.
# Submitted via: CDex 1.51
#
DISCID=8c0fe20b
DTITLE=Dj MIROMU - Shibuya Psychedelic Style 2
DYEAR=2005
DGENRE=Psychedelic
TTITLE0=永劫回帰/Ubartamar
TTITLE1=COOLIO[Infected Mushroom Remix]/Astrix
TTITLE2=I WISH[Brutal Remix by skazi/Infected Mashroom
TTITLE3=GET FUNKED UP/DAMAGE
TTITLE4=WORLD DESTRUCTION/SKAZI vs. DUBDEV
TTITLE5=MACHINE/VOID
TTITLE6=ACTION!!!/TALAMASCA
TTITLE7=PARTY POOPER/ESKIMO
TTITLE8=GHOST/MITSUMOTO
TTITLE9=GRIM GATE/Dj HIROMU
TTITLE10=HIGH PARADISE/1200 MICROGRAMS
EXTD=YEAR: 2005
EXTT0=
EXTT1=
EXTT2=
EXTT3=
EXTT4=
EXTT5=
EXTT6=
EXTT7=
EXTT8=
EXTT9=
EXTT10=
PLAYORDER=
